<?xml version="1.0" encoding="UTF-8"?>
<!DOCTYPE svg PUBLIC "-//W3C//DTD SVG 1.1//EN" "http://www.w3.org/Graphics/SVG/1.1/DTD/svg11.dtd">
<!-- Creator: CorelDRAW 2019 (64-Bit) -->
<svg xmlns="http://www.w3.org/2000/svg" xml:space="preserve" width="107.657mm" height="56.5902mm" version="1.1" style="shape-rendering:geometricPrecision; text-rendering:geometricPrecision; image-rendering:optimizeQuality; fill-rule:evenodd; clip-rule:evenodd"
viewBox="0 0 8448.58 4441.03"
 xmlns:xlink="http://www.w3.org/1999/xlink"
 xmlns:xodm="http://www.corel.com/coreldraw/odm/2003">
 <defs>
  <style type="text/css">
   <![CDATA[
    .str1 {stroke:#00FF87;stroke-width:313.91;stroke-miterlimit:22.9256}
    .str0 {stroke:#00FF87;stroke-width:313.91;stroke-miterlimit:22.9256}
    .fil0 {fill:none}
   ]]>
  </style>
 </defs>
 <g id="Layer_x0020_1">
  <metadata id="CorelCorpID_0Corel-Layer"/>
  <path class="fil0 str0" d="M3533.04 4132.61l-0.01 -0.01c-379.76,-265.91 -472.91,-794.19 -207,-1173.95l1710.77 -2443.22c265.91,-379.76 794.19,-472.91 1173.95,-207l0.01 0.01c379.76,265.91 472.91,794.19 207,1173.95l-1710.76 2443.22c-265.91,379.77 -794.19,472.92 -1173.95,207.01z"/>
  <path class="fil0 str0" d="M515.43 4132.6l-0.01 0c-379.76,-265.91 -472.91,-794.19 -207,-1173.95l1710.76 -2443.22c265.91,-379.77 794.19,-472.91 1173.95,-207l0.01 0c379.76,265.91 472.91,794.19 207,1173.95l-1710.77 2443.22c-265.91,379.77 -794.19,472.91 -1173.95,207z"/>
  <path class="fil0 str1" d="M7933.15 4132.6l0.01 0c379.76,-265.91 472.91,-794.19 207,-1173.95l-1710.76 -2443.22c-265.91,-379.77 -794.19,-472.91 -1173.95,-207l-0.01 0c-379.76,265.91 -472.91,794.19 -207,1173.95l1710.77 2443.22c265.91,379.77 794.19,472.91 1173.95,207z"/>
 </g>
</svg>
